<svg xmlns="http://www.w3.org/2000/svg" xmlns:xlink="http://www.w3.org/1999/xlink" viewBox="0 0 1920 774">
    <defs>
      <linearGradient id="linear-gradient" x1="0.238" y1="0.279" x2="1" y2="0.957" gradientUnits="objectBoundingBox">
        <stop offset="0" stop-color="#640ca1"/>
        <stop offset="1" stop-color="#e6995b"/>
      </linearGradient>
      <linearGradient id="linear-gradient-2" x1="-0.095" y1="0.505" x2="0.955" y2="0.577" gradientUnits="objectBoundingBox">
        <stop offset="0" stop-color="#3884b4"/>
        <stop offset="1" stop-color="#9e41fd"/>
      </linearGradient>
      <linearGradient id="linear-gradient-3" x1="0.124" y1="0.503" x2="0.923" y2="0.58" gradientUnits="objectBoundingBox">
        <stop offset="0" stop-color="#be6e71"/>
        <stop offset="1" stop-color="#c6766c"/>
      </linearGradient>
      <linearGradient id="linear-gradient-4" y1="0.5" x2="1" y2="0.5" gradientUnits="objectBoundingBox">
        <stop offset="0" stop-color="#4806a9"/>
        <stop offset="0.361" stop-color="#c81f85"/>
        <stop offset="0.671" stop-color="#ff5f5a"/>
        <stop offset="1" stop-color="#ffb446"/>
      </linearGradient>
    </defs>
    <g id="Footer" transform="translate(0 -2578)">
      <rect id="Rectangle_88" data-name="Rectangle 88" width="1920" height="774" transform="translate(0 2578)" fill="url(#linear-gradient)"/>
      <g id="Group_302" data-name="Group 302">
        <path id="截圖_2022-12-09_18.58.50" data-name="截圖 2022-12-09 18.58.50" d="M96.384.073c53.453.973,96.964,11.463,97.186,23.43s-42.93,20.878-96.383,19.905S.223,31.944,0,19.978,42.931-.9,96.384.073Z" transform="matrix(0.848, -0.53, 0.53, 0.848, 1388.974, 3231.084)" fill="url(#linear-gradient-2)"/>
        <path id="截圖_2022-12-09_18.58.50-2" data-name="截圖 2022-12-09 18.58.50" d="M77.3.091c42.915.973,77.884,9.516,78.106,19.081s-34.388,16.53-77.3,15.556S.223,25.212,0,15.647,34.389-.882,77.3.091Z" transform="matrix(0.848, -0.53, 0.53, 0.848, 1407.45, 3224.646)" fill="url(#linear-gradient-3)"/>
        <circle id="截圖_2022-12-09_18.57.50" data-name="截圖 2022-12-09 18.57.50" cx="53.9" cy="53.9" r="53.9" transform="translate(1428.839 3242.977) rotate(-90)" fill="url(#linear-gradient-4)"/>
        <ellipse id="截圖_2022-12-09_18.57.50-2" data-name="截圖 2022-12-09 18.57.50" cx="14.398" cy="53.9" rx="14.398" ry="53.9" transform="translate(1428.839 3203.476) rotate(-90)" fill="#ff346f" opacity="0.377"/>
        <ellipse id="截圖_2022-12-09_18.57.50-3" data-name="截圖 2022-12-09 18.57.50" cx="11.242" cy="40.24" rx="11.242" ry="40.24" transform="translate(1442.333 3234.283) rotate(-90)" fill="#8a0c97"/>
        <ellipse id="截圖_2022-12-09_18.57.50-4" data-name="截圖 2022-12-09 18.57.50" cx="12.195" cy="45.655" rx="12.195" ry="45.655" transform="translate(1436.918 3173.848) rotate(-90)" fill="#ff8e4d" opacity="0.474"/>
        <path id="Path_123" data-name="Path 123" d="M40.49-47.234a11.779,11.779,0,0,0-4.744-4.816A14.436,14.436,0,0,0,28.7-53.7,15.4,15.4,0,0,0,20.8-51.69a13.9,13.9,0,0,0-5.391,5.75,18.453,18.453,0,0,0-1.941,8.625,18.5,18.5,0,0,0,1.977,8.769,13.993,13.993,0,0,0,5.5,5.75,16.227,16.227,0,0,0,8.194,2.012,14.213,14.213,0,0,0,9.416-3.055,14.579,14.579,0,0,0,4.816-8.517H26.115v-7.691H53.284v8.769a23.568,23.568,0,0,1-4.313,9.7,24.349,24.349,0,0,1-8.517,7.152,25.042,25.042,0,0,1-11.68,2.7A26.445,26.445,0,0,1,15.657-15a23.8,23.8,0,0,1-9.2-9.092A26.082,26.082,0,0,1,3.115-37.315,26.28,26.28,0,0,1,6.457-50.576a23.724,23.724,0,0,1,9.2-9.128A26.3,26.3,0,0,1,28.7-62.974a26.105,26.105,0,0,1,14.734,4.133,21.1,21.1,0,0,1,8.625,11.608ZM70.822-45.8a14.147,14.147,0,0,1,5.067-4.959,14.093,14.093,0,0,1,7.152-1.8v10.566H80.381q-4.744,0-7.152,2.228T70.822-32v19.838H60.759V-51.977H70.822Zm36.656,34.285a20.974,20.974,0,0,1-10.35-2.552A18.373,18.373,0,0,1,89.9-21.287a21.644,21.644,0,0,1-2.623-10.781,21.185,21.185,0,0,1,2.7-10.781,18.73,18.73,0,0,1,7.367-7.223,21.382,21.382,0,0,1,10.422-2.552,21.382,21.382,0,0,1,10.422,2.552,18.73,18.73,0,0,1,7.367,7.223,21.185,21.185,0,0,1,2.7,10.781,20.753,20.753,0,0,1-2.767,10.781,19.162,19.162,0,0,1-7.475,7.223A21.736,21.736,0,0,1,107.478-11.512Zm0-8.769a10.468,10.468,0,0,0,5.139-1.33,9.664,9.664,0,0,0,3.845-3.989,13.443,13.443,0,0,0,1.438-6.469q0-5.678-2.983-8.733a9.805,9.805,0,0,0-7.3-3.055A9.575,9.575,0,0,0,100.4-40.8q-2.911,3.055-2.911,8.733t2.839,8.733A9.348,9.348,0,0,0,107.478-20.28Zm45.856,8.769a20.974,20.974,0,0,1-10.35-2.552,18.373,18.373,0,0,1-7.223-7.223,21.644,21.644,0,0,1-2.623-10.781,21.185,21.185,0,0,1,2.7-10.781,18.73,18.73,0,0,1,7.367-7.223,21.382,21.382,0,0,1,10.422-2.552,21.382,21.382,0,0,1,10.422,2.552,18.73,18.73,0,0,1,7.367,7.223,21.185,21.185,0,0,1,2.7,10.781,20.753,20.753,0,0,1-2.767,10.781,19.162,19.162,0,0,1-7.475,7.223A21.736,21.736,0,0,1,153.334-11.512Zm0-8.769a10.468,10.468,0,0,0,5.139-1.33,9.664,9.664,0,0,0,3.845-3.989,13.443,13.443,0,0,0,1.438-6.469q0-5.678-2.983-8.733a9.805,9.805,0,0,0-7.3-3.055,9.575,9.575,0,0,0-7.223,3.055q-2.911,3.055-2.911,8.733t2.839,8.733A9.348,9.348,0,0,0,153.334-20.28Zm38.238-25.947a15.28,15.28,0,0,1,5.355-4.564,16.228,16.228,0,0,1,7.8-1.833,17.413,17.413,0,0,1,9.236,2.516,17.7,17.7,0,0,1,6.541,7.152,22.989,22.989,0,0,1,2.408,10.745A23.429,23.429,0,0,1,220.5-21.394a18.109,18.109,0,0,1-6.541,7.3,17.048,17.048,0,0,1-9.236,2.588,16.067,16.067,0,0,1-7.727-1.8,16.576,16.576,0,0,1-5.427-4.528V6.817H181.51V-51.977h10.063Zm21.059,14.016a12.5,12.5,0,0,0-1.473-6.217,10.2,10.2,0,0,0-3.881-3.989,10.387,10.387,0,0,0-5.211-1.366,10.05,10.05,0,0,0-5.139,1.4,10.4,10.4,0,0,0-3.881,4.061,12.7,12.7,0,0,0-1.473,6.253,12.7,12.7,0,0,0,1.473,6.253,10.4,10.4,0,0,0,3.881,4.061,10.05,10.05,0,0,0,5.139,1.4,9.986,9.986,0,0,0,5.211-1.437,10.671,10.671,0,0,0,3.881-4.1A12.856,12.856,0,0,0,212.632-32.212Zm32.847,20.7a21,21,0,0,1-8.769-1.761,15.494,15.494,0,0,1-6.145-4.78,12.113,12.113,0,0,1-2.48-6.684h10.134a5.52,5.52,0,0,0,2.264,3.809,7.876,7.876,0,0,0,4.924,1.509,7.645,7.645,0,0,0,4.492-1.15,3.481,3.481,0,0,0,1.617-2.947,3.107,3.107,0,0,0-1.977-2.911,37.2,37.2,0,0,0-6.289-2.12,53.3,53.3,0,0,1-7.3-2.228,12.665,12.665,0,0,1-4.888-3.522,9.453,9.453,0,0,1-2.048-6.4,10.322,10.322,0,0,1,1.9-6.038,12.788,12.788,0,0,1,5.463-4.313,20.478,20.478,0,0,1,8.373-1.581q7.116,0,11.356,3.558a13.182,13.182,0,0,1,4.672,9.6h-9.631a5.213,5.213,0,0,0-1.977-3.773,7.346,7.346,0,0,0-4.708-1.4,7.418,7.418,0,0,0-4.2,1.006,3.208,3.208,0,0,0-1.473,2.8,3.294,3.294,0,0,0,2.013,3.055,31.251,31.251,0,0,0,6.253,2.12,53.082,53.082,0,0,1,7.116,2.228,12.572,12.572,0,0,1,4.852,3.558,9.77,9.77,0,0,1,2.12,6.361,10.548,10.548,0,0,1-1.9,6.181,12.547,12.547,0,0,1-5.462,4.277A20.7,20.7,0,0,1,245.479-11.512ZM282.423-63.19l-1.15,34.716h-8.481L271.569-63.19Zm-5.175,51.535a6.225,6.225,0,0,1-4.492-1.689,5.588,5.588,0,0,1-1.761-4.2,5.589,5.589,0,0,1,1.761-4.2,6.225,6.225,0,0,1,4.492-1.689,6.007,6.007,0,0,1,4.384,1.689,5.646,5.646,0,0,1,1.725,4.2,5.646,5.646,0,0,1-1.725,4.2A6.007,6.007,0,0,1,277.248-11.655Z" transform="translate(1573.056 3233.122)" fill="#fff"/>
      </g>
    </g>
  </svg>
  