<svg xmlns="http://www.w3.org/2000/svg" xmlns:xlink="http://www.w3.org/1999/xlink" viewBox="0 0 310 55">
    <defs>
      <linearGradient id="linear-gradient" x1="-0.095" y1="0.505" x2="0.955" y2="0.577" gradientUnits="objectBoundingBox">
        <stop offset="0" stop-color="#3884b4"/>
        <stop offset="1" stop-color="#9e41fd"/>
      </linearGradient>
      <linearGradient id="linear-gradient-2" y1="0.5" x2="1" y2="0.5" gradientUnits="objectBoundingBox">
        <stop offset="0" stop-color="#4806a9"/>
        <stop offset="0.361" stop-color="#c81f85"/>
        <stop offset="0.671" stop-color="#ff5f5a"/>
        <stop offset="1" stop-color="#ffb446"/>
      </linearGradient>
      <linearGradient id="linear-gradient-3" x1="0.885" y1="0.418" x2="0.083" y2="0.5" gradientUnits="objectBoundingBox">
        <stop offset="0" stop-color="#ff9831"/>
        <stop offset="1" stop-color="#a419b2"/>
      </linearGradient>
    </defs>
    <g id="Group_Logo" data-name="Group Logo" transform="translate(-42.966 -21.957)">
      <g id="Group_292" data-name="Group 292" transform="translate(-8784.513 -8835.896)">
        <g id="Group_291" data-name="Group 291" transform="translate(8827.479 8857.854)">
          <path id="截圖_2022-12-09_18.58.50" data-name="截圖 2022-12-09 18.58.50" d="M42.853.032c23.765.433,43.111,5.1,43.209,10.417S66.975,19.732,43.21,19.3.1,14.2,0,8.882,19.087-.4,42.853.032Z" transform="matrix(0.848, -0.53, 0.53, 0.848, 0, 45.606)" fill="url(#linear-gradient)"/>
          <path id="截圖_2022-12-09_18.58.50-2" data-name="截圖 2022-12-09 18.58.50" d="M34.37.04C53.45.473,69,4.271,69.1,8.524S53.807,15.873,34.727,15.44.1,11.209,0,6.957,15.289-.392,34.37.04Z" transform="matrix(0.848, -0.53, 0.53, 0.848, 8.215, 42.744)" fill="#fff"/>
        </g>
        <circle id="截圖_2022-12-09_18.57.50" data-name="截圖 2022-12-09 18.57.50" cx="23.964" cy="23.964" r="23.964" transform="translate(8845.203 8908.747) rotate(-90)" fill="url(#linear-gradient-2)"/>
        <ellipse id="截圖_2022-12-09_18.57.50-2" data-name="截圖 2022-12-09 18.57.50" cx="6.401" cy="23.964" rx="6.401" ry="23.964" transform="translate(8845.203 8891.185) rotate(-90)" fill="#ff346f" opacity="0.377"/>
        <ellipse id="截圖_2022-12-09_18.57.50-3" data-name="截圖 2022-12-09 18.57.50" cx="4.998" cy="17.891" rx="4.998" ry="17.891" transform="translate(8851.202 8904.882) rotate(-90)" fill="#8a0c97"/>
        <ellipse id="截圖_2022-12-09_18.57.50-4" data-name="截圖 2022-12-09 18.57.50" cx="5.422" cy="20.298" rx="5.422" ry="20.298" transform="translate(8848.795 8878.012) rotate(-90)" fill="#ff8e4d" opacity="0.474"/>
      </g>
      <path id="Path_123" data-name="Path 123" d="M19.732-56.1a5.237,5.237,0,0,0-2.109-2.141,6.419,6.419,0,0,0-3.132-.735,6.847,6.847,0,0,0-3.515.895,6.18,6.18,0,0,0-2.4,2.556,8.2,8.2,0,0,0-.863,3.835,8.224,8.224,0,0,0,.879,3.9,6.221,6.221,0,0,0,2.445,2.556,7.215,7.215,0,0,0,3.643.895,6.319,6.319,0,0,0,4.186-1.358,6.482,6.482,0,0,0,2.141-3.787H13.341V-52.9H25.42V-49A10.479,10.479,0,0,1,23.5-44.687a10.826,10.826,0,0,1-3.787,3.18,11.134,11.134,0,0,1-5.193,1.2,11.758,11.758,0,0,1-5.832-1.454A10.579,10.579,0,0,1,4.6-45.806a11.6,11.6,0,0,1-1.486-5.88,11.684,11.684,0,0,1,1.486-5.9,10.548,10.548,0,0,1,4.09-4.058,11.694,11.694,0,0,1,5.8-1.454,11.607,11.607,0,0,1,6.551,1.837A9.383,9.383,0,0,1,24.877-56.1Zm13.486.639a6.29,6.29,0,0,1,2.253-2.2,6.266,6.266,0,0,1,3.18-.8v4.7H37.468a4.532,4.532,0,0,0-3.18.991,4.567,4.567,0,0,0-1.071,3.451v8.82H28.744V-58.2h4.474Zm16.3,15.243a9.325,9.325,0,0,1-4.6-1.134A8.169,8.169,0,0,1,41.7-44.56a9.623,9.623,0,0,1-1.166-4.793,9.419,9.419,0,0,1,1.2-4.793,8.327,8.327,0,0,1,3.276-3.212,9.507,9.507,0,0,1,4.634-1.134,9.507,9.507,0,0,1,4.634,1.134,8.328,8.328,0,0,1,3.276,3.212,9.419,9.419,0,0,1,1.2,4.793,9.227,9.227,0,0,1-1.23,4.793A8.52,8.52,0,0,1,54.2-41.348,9.664,9.664,0,0,1,49.515-40.213Zm0-3.9A4.654,4.654,0,0,0,51.8-44.7a4.3,4.3,0,0,0,1.71-1.774,5.977,5.977,0,0,0,.639-2.876,5.329,5.329,0,0,0-1.326-3.883,4.359,4.359,0,0,0-3.244-1.358,4.257,4.257,0,0,0-3.212,1.358,5.41,5.41,0,0,0-1.294,3.883,5.5,5.5,0,0,0,1.262,3.883A4.156,4.156,0,0,0,49.515-44.112Zm20.388,3.9a9.325,9.325,0,0,1-4.6-1.134A8.169,8.169,0,0,1,62.09-44.56a9.623,9.623,0,0,1-1.166-4.793,9.419,9.419,0,0,1,1.2-4.793A8.328,8.328,0,0,1,65.4-57.358a9.507,9.507,0,0,1,4.634-1.134,9.507,9.507,0,0,1,4.634,1.134,8.327,8.327,0,0,1,3.276,3.212,9.419,9.419,0,0,1,1.2,4.793,9.227,9.227,0,0,1-1.23,4.793,8.52,8.52,0,0,1-3.323,3.212A9.664,9.664,0,0,1,69.9-40.213Zm0-3.9a4.654,4.654,0,0,0,2.285-.591,4.3,4.3,0,0,0,1.71-1.774,5.977,5.977,0,0,0,.639-2.876,5.329,5.329,0,0,0-1.326-3.883,4.359,4.359,0,0,0-3.244-1.358,4.257,4.257,0,0,0-3.212,1.358,5.41,5.41,0,0,0-1.294,3.883,5.5,5.5,0,0,0,1.262,3.883A4.156,4.156,0,0,0,69.9-44.112Zm17-11.536a6.794,6.794,0,0,1,2.381-2.029,7.215,7.215,0,0,1,3.467-.815,7.742,7.742,0,0,1,4.106,1.118,7.869,7.869,0,0,1,2.908,3.18,10.221,10.221,0,0,1,1.071,4.777,10.417,10.417,0,0,1-1.071,4.809,8.051,8.051,0,0,1-2.908,3.244,7.58,7.58,0,0,1-4.106,1.15,7.143,7.143,0,0,1-3.435-.8A7.37,7.37,0,0,1,86.9-43.026v10.961H82.43V-58.2H86.9Zm9.363,6.231a5.556,5.556,0,0,0-.655-2.764,4.536,4.536,0,0,0-1.726-1.774,4.618,4.618,0,0,0-2.317-.607,4.468,4.468,0,0,0-2.285.623,4.625,4.625,0,0,0-1.726,1.806,5.647,5.647,0,0,0-.655,2.78,5.647,5.647,0,0,0,.655,2.78,4.625,4.625,0,0,0,1.726,1.806,4.468,4.468,0,0,0,2.285.623,4.44,4.44,0,0,0,2.317-.639A4.744,4.744,0,0,0,95.612-46.6,5.716,5.716,0,0,0,96.267-49.417Zm14.6,9.2a9.335,9.335,0,0,1-3.9-.783,6.889,6.889,0,0,1-2.732-2.125,5.386,5.386,0,0,1-1.1-2.972h4.506A2.454,2.454,0,0,0,108.65-44.4a3.5,3.5,0,0,0,2.189.671,3.4,3.4,0,0,0,2-.511,1.548,1.548,0,0,0,.719-1.31,1.381,1.381,0,0,0-.879-1.294,16.537,16.537,0,0,0-2.8-.943,23.7,23.7,0,0,1-3.244-.991,5.631,5.631,0,0,1-2.173-1.566,4.2,4.2,0,0,1-.911-2.844,4.589,4.589,0,0,1,.847-2.684,5.686,5.686,0,0,1,2.429-1.917,9.1,9.1,0,0,1,3.723-.7,7.6,7.6,0,0,1,5.049,1.582,5.861,5.861,0,0,1,2.077,4.266H113.4a2.318,2.318,0,0,0-.879-1.678,3.266,3.266,0,0,0-2.093-.623,3.3,3.3,0,0,0-1.869.447,1.426,1.426,0,0,0-.655,1.246,1.465,1.465,0,0,0,.895,1.358,13.894,13.894,0,0,0,2.78.943,23.6,23.6,0,0,1,3.164.991,5.59,5.59,0,0,1,2.157,1.582,4.344,4.344,0,0,1,.943,2.828,4.69,4.69,0,0,1-.847,2.748,5.578,5.578,0,0,1-2.429,1.9A9.2,9.2,0,0,1,110.871-40.213ZM127.3-63.19l-.511,15.435h-3.771l-.543-15.435ZM125-40.277a2.768,2.768,0,0,1-2-.751,2.485,2.485,0,0,1-.783-1.869A2.485,2.485,0,0,1,123-44.767a2.768,2.768,0,0,1,2-.751,2.671,2.671,0,0,1,1.949.751,2.51,2.51,0,0,1,.767,1.869,2.51,2.51,0,0,1-.767,1.869A2.671,2.671,0,0,1,125-40.277Z" transform="translate(123.08 103.564)" fill="url(#linear-gradient-3)"/>
    </g>
  </svg>
  